{
    "asset" : {
        "generator" : "Khronos glTF Blender I/O v1.8.19",
        "version" : "2.0"
    },
    "scene" : 0,
    "scenes" : [
        {
            "name" : "Scene",
            "nodes" : [
                0
            ]
        }
    ],
    "nodes" : [
        {
            "mesh" : 0,
            "name" : "SM_House_01"
        }
    ],
    "meshes" : [
        {
            "name" : "Plane.008",
            "primitives" : [
                {
                    "attributes" : {
                        "POSITION" : 0,
                        "NORMAL" : 1,
                        "TEXCOORD_0" : 2
                    },
                    "indices" : 3
                }
            ]
        }
    ],
    "accessors" : [
        {
            "bufferView" : 0,
            "componentType" : 5126,
            "count" : 52,
            "max" : [
                2,
                4,
                2
            ],
            "min" : [
                -2,
                0,
                -2
            ],
            "type" : "VEC3"
        },
        {
            "bufferView" : 1,
            "componentType" : 5126,
            "count" : 52,
            "type" : "VEC3"
        },
        {
            "bufferView" : 2,
            "componentType" : 5126,
            "count" : 52,
            "type" : "VEC2"
        },
        {
            "bufferView" : 3,
            "componentType" : 5123,
            "count" : 102,
            "type" : "SCALAR"
        }
    ],
    "bufferViews" : [
        {
            "buffer" : 0,
            "byteLength" : 624,
            "byteOffset" : 0
        },
        {
            "buffer" : 0,
            "byteLength" : 624,
            "byteOffset" : 624
        },
        {
            "buffer" : 0,
            "byteLength" : 416,
            "byteOffset" : 1248
        },
        {
            "buffer" : 0,
            "byteLength" : 204,
            "byteOffset" : 1664
        }
    ],
    "buffers" : [
        {
            "byteLength" : 1868,
            "uri" : "data:application/octet-stream;base64,"
        }
    ]
}
