{
    "asset" : {
        "generator" : "Khronos glTF Blender I/O v1.8.19",
        "version" : "2.0"
    },
    "scene" : 0,
    "scenes" : [
        {
            "name" : "Scene",
            "nodes" : [
                0
            ]
        }
    ],
    "nodes" : [
        {
            "mesh" : 0,
            "name" : "World_Foliage"
        }
    ],
    "materials" : [
        {
            "doubleSided" : true,
            "name" : "T_WORLD",
            "pbrMetallicRoughness" : {
                "baseColorTexture" : {
                    "index" : 0
                },
                "metallicFactor" : 0
            }
        }
    ],
    "meshes" : [
        {
            "name" : "Plane.008",
            "primitives" : [
                {
                    "attributes" : {
                        "POSITION" : 0,
                        "NORMAL" : 1,
                        "TEXCOORD_0" : 2
                    },
                    "indices" : 3,
                    "material" : 0
                }
            ]
        }
    ],
    "textures" : [
        {
            "sampler" : 0,
            "source" : 0
        }
    ],
    "images" : [
        {
            "bufferView" : 4,
            "mimeType" : "image/png",
            "name" : "T_WORLD"
        }
    ],
    "accessors" : [
        {
            "bufferView" : 0,
            "componentType" : 5126,
            "count" : 74817,
            "max" : [
                121.82076263427734,
                24.176250457763672,
                122.12699890136719
            ],
            "min" : [
                -120.03964233398438,
                0.21151065826416016,
                -118.73396301269531
            ],
            "type" : "VEC3"
        },
        {
            "bufferView" : 1,
            "componentType" : 5126,
            "count" : 74817,
            "type" : "VEC3"
        },
        {
            "bufferView" : 2,
            "componentType" : 5126,
            "count" : 74817,
            "type" : "VEC2"
        },
        {
            "bufferView" : 3,
            "componentType" : 5125,
            "count" : 95757,
            "type" : "SCALAR"
        }
    ],
    "bufferViews" : [
        {
            "buffer" : 0,
            "byteLength" : 897804,
            "byteOffset" : 0
        },
        {
            "buffer" : 0,
            "byteLength" : 897804,
            "byteOffset" : 897804
        },
        {
            "buffer" : 0,
            "byteLength" : 598536,
            "byteOffset" : 1795608
        },
        {
            "buffer" : 0,
            "byteLength" : 383028,
            "byteOffset" : 2394144
        },
        {
            "buffer" : 0,
            "byteLength" : 87063,
            "byteOffset" : 2777172
        }
    ],
    "samplers" : [
        {
            "magFilter" : 9729,
            "minFilter" : 9987
        }
    ],
    "buffers" : [
        {
            "byteLength" : 2864236,
            "uri" : "data:application/octet-stream;base64,"
        }
    ]
}
