{
    "asset" : {
        "generator" : "Khronos glTF Blender I/O v1.8.19",
        "version" : "2.0"
    },
    "scene" : 0,
    "scenes" : [
        {
            "name" : "Scene",
            "nodes" : [
                0
            ]
        }
    ],
    "nodes" : [
        {
            "mesh" : 0,
            "name" : "World_Borders"
        }
    ],
    "materials" : [
        {
            "doubleSided" : true,
            "name" : "T_WORLD",
            "pbrMetallicRoughness" : {
                "baseColorTexture" : {
                    "index" : 0
                },
                "metallicFactor" : 0
            }
        }
    ],
    "meshes" : [
        {
            "name" : "Plane.004",
            "primitives" : [
                {
                    "attributes" : {
                        "POSITION" : 0,
                        "NORMAL" : 1,
                        "TEXCOORD_0" : 2
                    },
                    "indices" : 3,
                    "material" : 0
                }
            ]
        }
    ],
    "textures" : [
        {
            "sampler" : 0,
            "source" : 0
        }
    ],
    "images" : [
        {
            "bufferView" : 4,
            "mimeType" : "image/png",
            "name" : "T_WORLD"
        }
    ],
    "accessors" : [
        {
            "bufferView" : 0,
            "componentType" : 5126,
            "count" : 886,
            "max" : [
                152.0790557861328,
                52.376399993896484,
                155.57421875
            ],
            "min" : [
                -155.57421875,
                -6.992147445678711,
                -155.57421875
            ],
            "type" : "VEC3"
        },
        {
            "bufferView" : 1,
            "componentType" : 5126,
            "count" : 886,
            "type" : "VEC3"
        },
        {
            "bufferView" : 2,
            "componentType" : 5126,
            "count" : 886,
            "type" : "VEC2"
        },
        {
            "bufferView" : 3,
            "componentType" : 5123,
            "count" : 1224,
            "type" : "SCALAR"
        }
    ],
    "bufferViews" : [
        {
            "buffer" : 0,
            "byteLength" : 10632,
            "byteOffset" : 0
        },
        {
            "buffer" : 0,
            "byteLength" : 10632,
            "byteOffset" : 10632
        },
        {
            "buffer" : 0,
            "byteLength" : 7088,
            "byteOffset" : 21264
        },
        {
            "buffer" : 0,
            "byteLength" : 2448,
            "byteOffset" : 28352
        },
        {
            "buffer" : 0,
            "byteLength" : 87063,
            "byteOffset" : 30800
        }
    ],
    "samplers" : [
        {
            "magFilter" : 9729,
            "minFilter" : 9987
        }
    ],
    "buffers" : [
        {
            "byteLength" : 117864,
            "uri" : "data:application/octet-stream;base64,"
        }
    ]
}
