{
    "asset" : {
        "generator" : "Khronos glTF Blender I/O v1.8.19",
        "version" : "2.0"
    },
    "scene" : 0,
    "scenes" : [
        {
            "name" : "Scene",
            "nodes" : [
                0
            ]
        }
    ],
    "nodes" : [
        {
            "mesh" : 0,
            "name" : "WORLD"
        }
    ],
    "materials" : [
        {
            "doubleSided" : true,
            "name" : "T_WORLD",
            "pbrMetallicRoughness" : {
                "baseColorTexture" : {
                    "index" : 0
                },
                "metallicFactor" : 0
            }
        },
        {
            "doubleSided" : true,
            "name" : "water",
            "pbrMetallicRoughness" : {
                "baseColorTexture" : {
                    "index" : 1
                },
                "metallicFactor" : 0
            }
        }
    ],
    "meshes" : [
        {
            "name" : "Plane",
            "primitives" : [
                {
                    "attributes" : {
                        "POSITION" : 0,
                        "NORMAL" : 1,
                        "TEXCOORD_0" : 2
                    },
                    "indices" : 3,
                    "material" : 0
                },
                {
                    "attributes" : {
                        "POSITION" : 4,
                        "NORMAL" : 5,
                        "TEXCOORD_0" : 6
                    },
                    "indices" : 7,
                    "material" : 1
                }
            ]
        }
    ],
    "textures" : [
        {
            "sampler" : 0,
            "source" : 0
        },
        {
            "sampler" : 0,
            "source" : 1
        }
    ],
    "images" : [
        {
            "bufferView" : 4,
            "mimeType" : "image/png",
            "name" : "T_WORLD"
        },
        {
            "bufferView" : 9,
            "mimeType" : "image/png",
            "name" : "T_Water"
        }
    ],
    "accessors" : [
        {
            "bufferView" : 0,
            "componentType" : 5126,
            "count" : 2618,
            "max" : [
                120.20405578613281,
                64.52947998046875,
                155.57421875
            ],
            "min" : [
                -155.06173706054688,
                -1.3593288660049438,
                -120.01339721679688
            ],
            "type" : "VEC3"
        },
        {
            "bufferView" : 1,
            "componentType" : 5126,
            "count" : 2618,
            "type" : "VEC3"
        },
        {
            "bufferView" : 2,
            "componentType" : 5126,
            "count" : 2618,
            "type" : "VEC2"
        },
        {
            "bufferView" : 3,
            "componentType" : 5123,
            "count" : 3891,
            "type" : "SCALAR"
        },
        {
            "bufferView" : 5,
            "componentType" : 5126,
            "count" : 54,
            "max" : [
                120,
                0,
                120
            ],
            "min" : [
                -120,
                0,
                -120
            ],
            "type" : "VEC3"
        },
        {
            "bufferView" : 6,
            "componentType" : 5126,
            "count" : 54,
            "type" : "VEC3"
        },
        {
            "bufferView" : 7,
            "componentType" : 5126,
            "count" : 54,
            "type" : "VEC2"
        },
        {
            "bufferView" : 8,
            "componentType" : 5123,
            "count" : 138,
            "type" : "SCALAR"
        }
    ],
    "bufferViews" : [
        {
            "buffer" : 0,
            "byteLength" : 31416,
            "byteOffset" : 0
        },
        {
            "buffer" : 0,
            "byteLength" : 31416,
            "byteOffset" : 31416
        },
        {
            "buffer" : 0,
            "byteLength" : 20944,
            "byteOffset" : 62832
        },
        {
            "buffer" : 0,
            "byteLength" : 7782,
            "byteOffset" : 83776
        },
        {
            "buffer" : 0,
            "byteLength" : 87063,
            "byteOffset" : 91560
        },
        {
            "buffer" : 0,
            "byteLength" : 648,
            "byteOffset" : 178624
        },
        {
            "buffer" : 0,
            "byteLength" : 648,
            "byteOffset" : 179272
        },
        {
            "buffer" : 0,
            "byteLength" : 432,
            "byteOffset" : 179920
        },
        {
            "buffer" : 0,
            "byteLength" : 276,
            "byteOffset" : 180352
        },
        {
            "buffer" : 0,
            "byteLength" : 3567,
            "byteOffset" : 180628
        }
    ],
    "samplers" : [
        {
            "magFilter" : 9729,
            "minFilter" : 9987
        }
    ],
    "buffers" : [
        {
            "byteLength" : 184196,
            "uri" : "data:application/octet-stream;base64,"
        }
    ]
}
