{
    "asset" : {
        "generator" : "Khronos glTF Blender I/O v1.8.19",
        "version" : "2.0"
    },
    "scene" : 0,
    "scenes" : [
        {
            "name" : "Scene",
            "nodes" : [
                0
            ]
        }
    ],
    "nodes" : [
        {
            "mesh" : 0,
            "name" : "World_Rocks"
        }
    ],
    "materials" : [
        {
            "doubleSided" : true,
            "name" : "T_WORLD",
            "pbrMetallicRoughness" : {
                "baseColorTexture" : {
                    "index" : 0
                },
                "metallicFactor" : 0
            }
        }
    ],
    "meshes" : [
        {
            "name" : "Plane.013",
            "primitives" : [
                {
                    "attributes" : {
                        "POSITION" : 0,
                        "NORMAL" : 1,
                        "TEXCOORD_0" : 2
                    },
                    "indices" : 3,
                    "material" : 0
                }
            ]
        }
    ],
    "textures" : [
        {
            "sampler" : 0,
            "source" : 0
        }
    ],
    "images" : [
        {
            "bufferView" : 4,
            "mimeType" : "image/png",
            "name" : "T_WORLD"
        }
    ],
    "accessors" : [
        {
            "bufferView" : 0,
            "componentType" : 5126,
            "count" : 34952,
            "max" : [
                121.51856994628906,
                20.560138702392578,
                120.3675537109375
            ],
            "min" : [
                -123.95500183105469,
                1.1242523193359375,
                -116.50303649902344
            ],
            "type" : "VEC3"
        },
        {
            "bufferView" : 1,
            "componentType" : 5126,
            "count" : 34952,
            "type" : "VEC3"
        },
        {
            "bufferView" : 2,
            "componentType" : 5126,
            "count" : 34952,
            "type" : "VEC2"
        },
        {
            "bufferView" : 3,
            "componentType" : 5123,
            "count" : 44964,
            "type" : "SCALAR"
        }
    ],
    "bufferViews" : [
        {
            "buffer" : 0,
            "byteLength" : 419424,
            "byteOffset" : 0
        },
        {
            "buffer" : 0,
            "byteLength" : 419424,
            "byteOffset" : 419424
        },
        {
            "buffer" : 0,
            "byteLength" : 279616,
            "byteOffset" : 838848
        },
        {
            "buffer" : 0,
            "byteLength" : 89928,
            "byteOffset" : 1118464
        },
        {
            "buffer" : 0,
            "byteLength" : 87063,
            "byteOffset" : 1208392
        }
    ],
    "samplers" : [
        {
            "magFilter" : 9729,
            "minFilter" : 9987
        }
    ],
    "buffers" : [
        {
            "byteLength" : 1295456,
            "uri" : "data:application/octet-stream;base64,"
        }
    ]
}
