{
    "asset" : {
        "generator" : "Khronos glTF Blender I/O v1.8.19",
        "version" : "2.0"
    },
    "scene" : 0,
    "scenes" : [
        {
            "name" : "Scene",
            "nodes" : [
                0
            ]
        }
    ],
    "nodes" : [
        {
            "mesh" : 0,
            "name" : "NPC_Car"
        }
    ],
    "materials" : [
        {
            "doubleSided" : true,
            "name" : "NPC_car",
            "pbrMetallicRoughness" : {
                "baseColorTexture" : {
                    "index" : 0
                },
                "metallicFactor" : 0
            }
        }
    ],
    "meshes" : [
        {
            "name" : "Plane.015",
            "primitives" : [
                {
                    "attributes" : {
                        "POSITION" : 0,
                        "NORMAL" : 1,
                        "TEXCOORD_0" : 2
                    },
                    "indices" : 3,
                    "material" : 0
                }
            ]
        }
    ],
    "textures" : [
        {
            "sampler" : 0,
            "source" : 0
        }
    ],
    "images" : [
        {
            "bufferView" : 4,
            "mimeType" : "image/png",
            "name" : "T_NPC_Car_BaseColor_Black"
        }
    ],
    "accessors" : [
        {
            "bufferView" : 0,
            "componentType" : 5126,
            "count" : 1310,
            "max" : [
                1.028023600578308,
                2.2377402782440186,
                2.534278154373169
            ],
            "min" : [
                -1.028023600578308,
                0.40507957339286804,
                -2.5456230640411377
            ],
            "type" : "VEC3"
        },
        {
            "bufferView" : 1,
            "componentType" : 5126,
            "count" : 1310,
            "type" : "VEC3"
        },
        {
            "bufferView" : 2,
            "componentType" : 5126,
            "count" : 1310,
            "type" : "VEC2"
        },
        {
            "bufferView" : 3,
            "componentType" : 5123,
            "count" : 2010,
            "type" : "SCALAR"
        }
    ],
    "bufferViews" : [
        {
            "buffer" : 0,
            "byteLength" : 15720,
            "byteOffset" : 0
        },
        {
            "buffer" : 0,
            "byteLength" : 15720,
            "byteOffset" : 15720
        },
        {
            "buffer" : 0,
            "byteLength" : 10480,
            "byteOffset" : 31440
        },
        {
            "buffer" : 0,
            "byteLength" : 4020,
            "byteOffset" : 41920
        },
        {
            "buffer" : 0,
            "byteLength" : 17585,
            "byteOffset" : 45940
        }
    ],
    "samplers" : [
        {
            "magFilter" : 9729,
            "minFilter" : 9987
        }
    ],
    "buffers" : [
        {
            "byteLength" : 63528,
            "uri" : "data:application/octet-stream;base64,"
        }
    ]
}
