{
    "asset" : {
        "generator" : "Khronos glTF Blender I/O v1.8.19",
        "version" : "2.0"
    },
    "scene" : 0,
    "scenes" : [
        {
            "name" : "Scene",
            "nodes" : [
                0
            ]
        }
    ],
    "nodes" : [
        {
            "mesh" : 0,
            "name" : "World_Architecture"
        }
    ],
    "materials" : [
        {
            "doubleSided" : true,
            "name" : "T_WORLD",
            "pbrMetallicRoughness" : {
                "baseColorTexture" : {
                    "index" : 0
                },
                "metallicFactor" : 0
            }
        }
    ],
    "meshes" : [
        {
            "name" : "Plane.005",
            "primitives" : [
                {
                    "attributes" : {
                        "POSITION" : 0,
                        "NORMAL" : 1,
                        "TEXCOORD_0" : 2
                    },
                    "indices" : 3,
                    "material" : 0
                }
            ]
        }
    ],
    "textures" : [
        {
            "sampler" : 0,
            "source" : 0
        }
    ],
    "images" : [
        {
            "bufferView" : 4,
            "mimeType" : "image/png",
            "name" : "T_WORLD"
        }
    ],
    "accessors" : [
        {
            "bufferView" : 0,
            "componentType" : 5126,
            "count" : 5561,
            "max" : [
                115.21952819824219,
                18.35405731201172,
                93.08757019042969
            ],
            "min" : [
                -83.09971618652344,
                1.5676345825195312,
                -95.32749938964844
            ],
            "type" : "VEC3"
        },
        {
            "bufferView" : 1,
            "componentType" : 5126,
            "count" : 5561,
            "type" : "VEC3"
        },
        {
            "bufferView" : 2,
            "componentType" : 5126,
            "count" : 5561,
            "type" : "VEC2"
        },
        {
            "bufferView" : 3,
            "componentType" : 5123,
            "count" : 7650,
            "type" : "SCALAR"
        }
    ],
    "bufferViews" : [
        {
            "buffer" : 0,
            "byteLength" : 66732,
            "byteOffset" : 0
        },
        {
            "buffer" : 0,
            "byteLength" : 66732,
            "byteOffset" : 66732
        },
        {
            "buffer" : 0,
            "byteLength" : 44488,
            "byteOffset" : 133464
        },
        {
            "buffer" : 0,
            "byteLength" : 15300,
            "byteOffset" : 177952
        },
        {
            "buffer" : 0,
            "byteLength" : 66799,
            "byteOffset" : 193252
        }
    ],
    "samplers" : [
        {
            "magFilter" : 9729,
            "minFilter" : 9987
        }
    ],
    "buffers" : [
        {
            "byteLength" : 260052,
            "uri" : "data:application/octet-stream;base64,"
        }
    ]
}
